<?xml version="1.0" standalone="no"?>
<!DOCTYPE svg PUBLIC "-//W3C//DTD SVG 20010904//EN"
 "http://www.w3.org/TR/2001/REC-SVG-20010904/DTD/svg10.dtd">
<svg version="1.0" xmlns="http://www.w3.org/2000/svg"
 width="300.000000pt" height="353.000000pt" viewBox="0 0 300.000000 353.000000"
 preserveAspectRatio="xMidYMid meet">
<metadata>
Created by potrace 1.10, written by Peter Selinger 2001-2011
</metadata>
<g transform="translate(0.000000,353.000000) scale(0.100000,-0.100000)"
fill="#000000" stroke="none">
<path d="M1565 2689 c-167 -22 -415 -102 -454 -146 -45 -52 -12 -167 54 -185
22 -5 57 3 144 33 170 59 246 73 382 70 93 -2 143 -66 112 -142 -32 -82 -227
-234 -472 -370 -147 -81 -150 -80 -179 41 -82 348 -103 400 -161 400 -41 0
-125 -27 -153 -50 -42 -32 -41 -64 8 -257 51 -204 103 -458 134 -653 11 -74
26 -148 32 -163 19 -50 60 -59 144 -30 105 35 120 66 98 206 -30 191 -29 177
-5 177 27 0 373 -113 615 -201 195 -71 245 -81 285 -53 33 23 81 103 81 135 0
57 -28 73 -233 139 -396 127 -437 142 -447 159 -13 26 2 41 97 94 227 129 379
277 423 411 15 48 15 139 0 196 -17 62 -99 142 -175 169 -70 26 -220 35 -330
20z m303 -55 c63 -18 127 -72 153 -129 12 -25 19 -64 19 -105 0 -152 -130
-305 -388 -457 -147 -87 -170 -123 -113 -180 22 -22 70 -42 227 -91 109 -35
246 -80 304 -100 100 -35 105 -38 108 -67 4 -39 -34 -96 -72 -110 -23 -8 -45
-3 -120 24 -50 18 -231 81 -402 139 -332 112 -348 115 -380 66 -16 -24 -16
-32 0 -122 30 -176 23 -200 -70 -228 -63 -19 -89 -3 -99 58 -45 294 -92 528
-155 777 -32 129 -37 183 -17 199 19 16 116 42 133 35 26 -10 41 -54 89 -249
50 -204 70 -244 125 -244 30 0 205 95 343 187 203 136 287 226 295 319 4 46 1
54 -27 87 -41 46 -87 61 -186 59 -96 -1 -182 -19 -326 -69 -121 -41 -150 -40
-169 8 -23 54 -5 80 75 112 219 89 499 123 653 81z"/>
<path d="M880 729 c-63 -6 -117 -12 -119 -15 -16 -15 33 -25 104 -20 204 14
824 28 1045 24 153 -3 224 -2 190 4 -82 12 -1086 18 -1220 7z"/>
</g>
</svg>
